<svg width="20" height="20" viewBox="0 0 20 20" fill="none" xmlns="http://www.w3.org/2000/svg">
<mask id="mask0_421_865" style="mask-type:luminance" maskUnits="userSpaceOnUse" x="4" y="3" width="12" height="16">
<path d="M4.38867 3.3208H15.106V18.9783H4.38867V3.3208Z" fill="white"/>
</mask>
<g mask="url(#mask0_421_865)">
<path d="M4.40408 11.5843C4.41908 11.6989 4.44291 11.8118 4.47512 11.9228C4.53646 12.1395 4.64236 12.331 4.79327 12.4968C4.94352 12.6536 5.11848 12.7736 5.31793 12.8569C5.42031 12.9016 5.52555 12.9385 5.63366 12.9675C5.68352 12.9818 5.73316 12.9964 5.78302 13.006L5.9421 13.0348L6.11066 13.054C6.13912 13.1619 6.17001 13.2676 6.20553 13.3733C6.32908 13.7435 6.50095 14.0894 6.7207 14.4106C6.75402 14.4611 6.78711 14.5116 6.82286 14.5597L6.8608 14.6148L7.04349 14.855C7.08872 14.9151 7.14078 14.9728 7.19065 15.0304C7.24051 15.0881 7.27846 15.1361 7.32369 15.1864L7.51343 15.3977C7.57278 15.4625 7.63456 15.5251 7.69391 15.5874L7.83643 15.7315L8.00257 15.8924C8.05 15.9382 8.09744 15.9838 8.1473 16.0269C8.11641 16.0894 8.08795 16.1542 8.05706 16.2166C8.02618 16.2791 7.99308 16.3656 7.95977 16.44L7.91696 16.5432C7.90284 16.5816 7.88387 16.6201 7.86953 16.6585C7.85541 16.6969 7.81503 16.8026 7.7912 16.8745V16.8938L7.7698 16.9659C7.7698 16.9972 7.7484 17.0283 7.73891 17.0571C7.72943 17.0859 7.73891 17.0933 7.72479 17.11C7.71045 17.1268 7.70339 17.1891 7.69391 17.2276C7.68442 17.266 7.67493 17.2973 7.66787 17.331L7.63941 17.4894C7.63941 17.5229 7.6275 17.5567 7.62264 17.5926C7.61801 17.6286 7.61073 17.6862 7.60609 17.7343C7.59418 17.8529 7.59418 17.9713 7.60609 18.0898C7.61933 18.197 7.64691 18.3002 7.68905 18.3996C7.73428 18.5008 7.79672 18.5898 7.87659 18.6662C7.94829 18.733 8.0275 18.7891 8.11399 18.8342C8.31057 18.9265 8.51708 18.9667 8.73352 18.9544C8.84251 18.9479 8.95018 18.9318 9.0563 18.9064C9.12536 18.8907 9.19353 18.8715 9.2606 18.8487C9.36739 18.8125 9.47175 18.779 9.5739 18.7334C9.77534 18.6465 9.96442 18.5375 10.1411 18.4068C10.2784 18.3009 10.4066 18.1849 10.5257 18.0585C10.5756 18.0033 10.6254 17.9528 10.6729 17.8976L10.7108 17.9144C10.8097 17.9577 10.9109 17.9937 11.0146 18.0225C11.2264 18.0835 11.4409 18.0949 11.658 18.0562C11.7696 18.0368 11.8771 18.004 11.9808 17.9577C12.0739 17.9168 12.1632 17.8688 12.249 17.8136C12.4256 17.6894 12.5846 17.5453 12.7261 17.3813C12.9831 17.0877 13.2022 16.7675 13.3835 16.4208C13.4594 16.2742 13.5355 16.1301 13.602 15.9813L13.7467 15.6618C13.7657 15.6162 13.7871 15.5706 13.8036 15.5226L13.9367 15.2009C13.9581 15.1408 13.9817 15.0831 14.0006 15.0255V15.0134L14.1716 14.4732C14.1716 14.4444 14.1857 14.4131 14.1952 14.3843C14.212 14.317 14.2285 14.2498 14.2475 14.1825C14.2665 14.1153 14.2833 14.0409 14.3022 13.9714C14.3022 13.9473 14.3164 13.9209 14.3212 13.8968L14.3995 13.5487C14.4185 13.4694 14.4375 13.3878 14.4516 13.3085C14.4825 13.1405 14.5182 12.9747 14.5443 12.8067C14.5703 12.6384 14.6012 12.4704 14.625 12.3096C14.6391 12.1918 14.6559 12.0694 14.6725 11.9541C14.6725 11.9011 14.689 11.8509 14.6939 11.8004L14.7651 11.1737C14.7817 11.02 14.7958 10.8662 14.8101 10.7125C14.8243 10.5588 14.8362 10.4196 14.8481 10.2706L14.8765 9.90798C14.8765 9.85279 14.8765 9.79515 14.8765 9.73751C14.8765 9.63183 14.8885 9.52861 14.8931 9.42293C14.8931 9.36528 14.8931 9.30764 14.8931 9.25C14.8931 9.19235 14.8931 9.20442 14.8931 9.18029C14.8931 9.09382 14.8931 9.00736 14.8931 8.92089C14.8931 8.83465 14.8931 8.80583 14.8931 8.75042C14.8944 8.73299 14.8944 8.71534 14.8931 8.69769L14.9193 8.3878C14.9204 8.36948 14.9204 8.35116 14.9193 8.33262C14.9193 8.3038 14.9359 8.27498 14.943 8.24615C14.9502 8.21733 14.9597 8.18851 14.9668 8.15723C14.9738 8.12618 14.9882 8.05647 14.9977 8.00843C15.0072 7.96039 15.0118 7.92912 15.0191 7.89069C15.0356 7.80422 15.0475 7.72021 15.0594 7.63375C15.0594 7.59778 15.0594 7.56181 15.0594 7.52584C15.0594 7.48964 15.0594 7.45121 15.0594 7.41278C15.0996 7.23516 15.0996 7.06223 15.0996 6.89176C15.0996 6.83412 15.0996 6.77647 15.0996 6.72129C15.0996 6.6661 15.0996 6.66119 15.0996 6.62991C15.0996 6.59885 15.0996 6.52914 15.0996 6.47642C15.0996 6.42346 15.0996 6.40425 15.0855 6.36828L15.0711 6.24584C15.0711 6.19781 15.057 6.15223 15.0475 6.10419C15.0332 6.01527 15.0166 5.92635 14.9977 5.83519C14.9787 5.74381 14.9597 5.67432 14.9383 5.59501C14.9169 5.51569 14.8931 5.44129 14.8695 5.35483C14.8576 5.31886 14.8434 5.28512 14.8315 5.24915L14.7887 5.13386C14.7031 4.91379 14.5939 4.70645 14.4611 4.51185C14.3296 4.33021 14.1785 4.16689 14.0079 4.02211C13.7672 3.80136 13.4943 3.63469 13.1889 3.52253C13.1115 3.49215 13.0323 3.46735 12.9515 3.44813L12.7995 3.4144C12.7759 3.4144 12.7521 3.40255 12.7285 3.4001L12.574 3.37597H12.503L12.351 3.36167C12.3201 3.36167 12.2892 3.36167 12.2585 3.36167H12.116C12.0875 3.36167 12.0567 3.36167 12.0258 3.36167H11.8954C11.8561 3.35295 11.8166 3.34737 11.7767 3.34491L11.6556 3.35921C11.62 3.35921 11.5819 3.35921 11.5463 3.37373L11.3089 3.4144L11.1951 3.44076H11.1594L11.036 3.41216L10.9482 3.39518C10.8769 3.39518 10.8035 3.36636 10.7298 3.35675C10.6563 3.34714 10.5731 3.3353 10.4924 3.32793L10.2409 3.30872H9.63082L9.4124 3.33039C9.37732 3.33285 9.34246 3.33754 9.30804 3.34491L9.10859 3.37842C9.06535 3.38647 9.02254 3.39697 8.9804 3.4097C8.90914 3.42646 8.8381 3.44076 8.76683 3.46489L8.51289 3.55135C8.482 3.55135 8.45354 3.57526 8.42508 3.58733L8.27792 3.64988C8.21614 3.67625 8.15436 3.70753 8.09259 3.73858L7.90042 3.83957L7.66302 3.97631C7.63544 3.99172 7.6094 4.00937 7.58469 4.02926L7.45187 4.11818C7.39473 4.15661 7.34266 4.19973 7.28794 4.24062C7.23345 4.28128 7.17873 4.32708 7.12666 4.37266L6.92721 4.55274L6.84183 4.6392L6.72556 4.75918C6.67569 4.80968 6.62804 4.86486 6.5806 4.91781C6.53317 4.97054 6.48816 5.02349 6.44536 5.07622L6.33372 5.21564C6.31474 5.242 6.29334 5.26367 6.27437 5.29004L6.12721 5.50609C6.08705 5.56127 6.05131 5.62137 6.01579 5.67902C5.98005 5.73666 5.93018 5.81106 5.89223 5.88077C5.85429 5.95048 5.79251 6.06331 5.74507 6.15446C5.69764 6.24584 5.67624 6.28896 5.64314 6.35621L5.55533 6.53875C5.51253 6.63237 5.47215 6.72375 5.42935 6.8149C5.38677 6.90628 5.36294 6.97108 5.32985 7.05508C5.29653 7.13909 5.27756 7.17752 5.25373 7.23762C5.23012 7.29772 5.18269 7.41055 5.14937 7.49925C5.09245 7.64827 5.03773 7.79707 4.98324 7.94833C4.95698 8.02519 4.92852 8.09981 4.90491 8.17421C4.88108 8.24861 4.84071 8.37105 4.80982 8.46712C4.77915 8.56319 4.76238 8.62553 4.73878 8.7073C4.71495 8.78885 4.6984 8.84649 4.67943 8.9162C4.66045 8.98591 4.6342 9.07707 4.61522 9.15638L4.55124 9.44683C4.55124 9.47342 4.55124 9.50224 4.53447 9.53106C4.51792 9.55988 4.51329 9.64389 4.5038 9.70153C4.49432 9.75918 4.47998 9.85525 4.46806 9.94172C4.45615 10.0282 4.44445 10.093 4.43717 10.1698C4.43011 10.2467 4.41599 10.3332 4.40871 10.41C4.40165 10.4866 4.40871 10.5275 4.3968 10.5852C4.38511 10.6428 4.3968 10.6596 4.3968 10.6958V10.8421C4.3968 10.8805 4.3968 10.9214 4.3968 10.9599C4.3968 11.0414 4.3968 11.1256 4.3968 11.2C4.39172 11.3283 4.39393 11.4563 4.40408 11.5843ZM8.02375 15.6475C7.96683 15.5923 7.9099 15.5418 7.85761 15.4842L7.6489 15.2632C7.59903 15.2127 7.54917 15.1575 7.50174 15.1024C7.39716 14.9871 7.29743 14.8622 7.19771 14.7493L7.05055 14.5621C7.03268 14.5422 7.01613 14.5215 7.0009 14.4996L6.95325 14.4323L6.85838 14.2907C6.84117 14.2692 6.82528 14.2469 6.81094 14.2234C6.70482 14.0567 6.60973 13.8838 6.52611 13.7046C6.44447 13.531 6.37475 13.3525 6.31717 13.1693L6.28871 13.0683H6.42638C6.49765 13.0683 6.57112 13.0683 6.64481 13.0683H6.85352C6.92435 13.0647 6.99473 13.0576 7.06489 13.0466L7.2286 13.0227L7.29986 13.0107L7.57278 12.9506C7.6511 12.9338 7.72943 12.9074 7.81018 12.8858L7.89336 12.8619L8.00257 12.8234C8.06655 12.7993 8.13539 12.7779 8.19959 12.749L8.35381 12.684L8.4392 12.6456L8.67659 12.5303C8.74058 12.4992 8.79993 12.4631 8.86413 12.4271C8.92811 12.3911 8.98283 12.3623 9.04218 12.3239L9.27958 12.1773L9.35062 12.1293C9.39342 12.0957 9.43843 12.0645 9.48366 12.0334C9.52867 12.0021 9.5953 11.9541 9.64737 11.9107C9.69966 11.8676 9.76144 11.8267 9.81593 11.7812L10.0295 11.6058C10.0937 11.553 10.1577 11.4954 10.2219 11.4378C10.2859 11.3801 10.3263 11.3441 10.3785 11.2937L10.5422 11.1399C10.5992 11.0823 10.6585 11.0271 10.7132 10.9695L10.9008 10.7702C10.9601 10.7076 11.0122 10.6428 11.0693 10.5805C11.1737 10.4627 11.2734 10.3403 11.3754 10.2154L11.6745 9.82866C11.8715 9.58871 12.0661 9.34853 12.2513 9.10835C12.4364 8.86816 12.6239 8.58486 12.8139 8.32301C13.0038 8.06138 13.2009 7.79461 13.3884 7.53053L13.6754 7.14401C13.756 7.0238 13.8462 6.91164 13.9461 6.80775C13.9848 6.76865 14.0276 6.73514 14.0743 6.70677H14.1004C14.1004 6.7548 14.1193 6.80284 14.1264 6.85087C14.1264 6.91812 14.1478 6.98783 14.1573 7.05508C14.1668 7.12233 14.1573 7.12948 14.1573 7.16545C14.1573 7.20165 14.1573 7.23047 14.1692 7.26153C14.1692 7.40094 14.193 7.54014 14.193 7.67955C14.193 7.81874 14.193 7.96039 14.193 8.09735C14.193 8.23409 14.193 8.36144 14.1741 8.49125L14.1502 8.82013C14.1502 8.86816 14.1502 8.9162 14.1337 8.96424C14.1169 9.01227 14.1337 9.08422 14.1123 9.14186C14.0909 9.1995 14.0909 9.30272 14.079 9.38204L14.06 9.40371H14.0719L13.9936 9.48057L13.9128 9.54067L13.8155 9.62713L13.7396 9.69416L13.5567 9.84319C13.4239 9.94641 13.2887 10.0449 13.1556 10.1457L12.7759 10.4219C12.6596 10.5059 12.5385 10.5923 12.4269 10.6812L12.1897 10.8566L12.0092 11.003L11.8526 11.1328C11.7932 11.1833 11.7314 11.2336 11.6745 11.2865L11.4561 11.4858C11.4016 11.5338 11.3493 11.5866 11.2948 11.6371L10.9648 11.9901L10.7845 12.1751L10.649 12.3214L10.49 12.4919L10.2932 12.7202C10.1934 12.833 10.0983 12.9602 10.0035 13.0708C9.9086 13.1811 9.80402 13.3228 9.70915 13.4501C9.66634 13.5078 9.62134 13.5654 9.57853 13.6255C9.53595 13.6854 9.47881 13.76 9.43137 13.8295L9.26766 14.0697L9.14654 14.2571C8.96849 14.5355 8.80478 14.8237 8.63865 15.1144C8.56275 15.2489 8.48443 15.3834 8.40125 15.5202L8.27792 15.7603C8.25894 15.7963 8.24217 15.8325 8.2232 15.866L8.15436 15.8037L8.02375 15.6475ZM10.4593 17.8592C10.4141 17.9072 10.3691 17.9577 10.3192 18.0057C10.2309 18.0909 10.1383 18.1711 10.0414 18.2459C9.9461 18.3174 9.84638 18.3822 9.74246 18.4403C9.61075 18.5116 9.47462 18.5723 9.33407 18.6228L9.1964 18.6686C9.13551 18.6872 9.07373 18.7024 9.01129 18.7142H8.99938C8.86281 18.748 8.72447 18.7623 8.58393 18.7573C8.47781 18.7462 8.37411 18.7229 8.27306 18.6879C8.19849 18.6581 8.12811 18.6206 8.06192 18.5748C8.01183 18.5359 7.96594 18.4928 7.92424 18.4452C7.89291 18.4019 7.86512 18.3563 7.84107 18.3083C7.81591 18.2502 7.79694 18.1903 7.78414 18.1282C7.76738 18.0223 7.76274 17.9159 7.7698 17.8089C7.7698 17.732 7.78657 17.6574 7.79606 17.583C7.80554 17.5086 7.8126 17.4823 7.82209 17.4342C7.83158 17.3862 7.83864 17.3428 7.85055 17.2973L7.87901 17.1891C7.87791 17.1748 7.87791 17.1603 7.87901 17.146C7.90042 17.0812 7.91939 17.0164 7.94079 16.9492C7.96219 16.8819 7.99065 16.8122 8.01669 16.7425C8.04272 16.673 8.06898 16.6129 8.09501 16.5481C8.14024 16.4328 8.19231 16.3222 8.2446 16.2094C8.25651 16.1877 8.266 16.1685 8.27549 16.1471L8.36087 16.2215L8.75249 16.5528C8.85707 16.6417 8.96628 16.7307 9.07307 16.8169L9.31047 16.9994C9.3696 17.0475 9.43137 17.0908 9.49315 17.1389C9.62376 17.2372 9.75658 17.3285 9.8872 17.4246C9.94897 17.4702 10.0154 17.5111 10.0794 17.5517C10.1862 17.6239 10.2954 17.6959 10.4094 17.7584L10.5114 17.8161C10.4878 17.8281 10.4734 17.8449 10.4593 17.8592ZM10.6965 17.5951L10.6395 17.6623C10.5186 17.6022 10.4021 17.5325 10.2859 17.4606L10.0485 17.3069C9.92757 17.2276 9.8113 17.1411 9.6926 17.0667C9.50506 16.925 9.31753 16.7834 9.13705 16.6346C8.9568 16.4856 8.74786 16.3151 8.56032 16.1542C8.49612 16.099 8.43214 16.0436 8.37279 15.9885C8.40434 15.9246 8.43765 15.8595 8.47251 15.7941C8.51046 15.7219 8.54841 15.65 8.58878 15.5778C8.62916 15.5059 8.68145 15.4145 8.72646 15.3376C8.80478 15.1935 8.88796 15.0543 8.96386 14.9127C9.03975 14.771 9.12514 14.6365 9.20126 14.4996C9.32459 14.3052 9.43843 14.113 9.58096 13.928C9.65465 13.8248 9.72812 13.7238 9.80402 13.6231L10.0414 13.3109C10.1387 13.1836 10.2433 13.0587 10.3477 12.9363L10.4805 12.7779C10.5303 12.7224 10.578 12.6648 10.6301 12.6096L10.8341 12.3864L10.991 12.2253C11.0954 12.1174 11.1997 12.0142 11.3065 11.9085L11.5583 11.6683C11.6485 11.5843 11.7385 11.5001 11.8336 11.4282C11.9285 11.356 11.9642 11.3129 12.0331 11.2577L12.2513 11.0535C12.3574 10.967 12.4666 10.883 12.5789 10.8014C12.8423 10.6044 13.1106 10.4122 13.374 10.2154C13.4974 10.124 13.6114 10.0304 13.7421 9.93434C13.7727 9.90798 13.8085 9.88161 13.8394 9.85279L13.9247 9.77839C13.9532 9.75181 13.9841 9.7279 14.0101 9.70153C13.9841 9.84073 13.9603 9.98014 13.9296 10.1193C13.8987 10.2585 13.8583 10.4507 13.8131 10.5997C13.7919 10.6812 13.7705 10.763 13.7467 10.8399L13.6754 11.0798L13.6044 11.32V11.308V11.3417C13.583 11.404 13.564 11.4666 13.5426 11.5289C13.4429 11.8317 13.3312 12.1293 13.215 12.4248C13.0987 12.7202 12.961 13.0636 12.8304 13.3853C12.7 13.7071 12.574 14.0024 12.4412 14.3074C12.3082 14.6124 12.1729 14.9127 12.0306 15.2105C11.9618 15.3593 11.8905 15.5034 11.8193 15.65C11.748 15.7963 11.6816 15.9333 11.6103 16.0725C11.5393 16.2119 11.4656 16.3582 11.3873 16.4976C11.3469 16.572 11.3089 16.6464 11.2664 16.7186L11.1404 16.93C11.0835 17.0187 11.0265 17.1076 10.9672 17.194L10.8509 17.3598C10.82 17.4029 10.7867 17.4438 10.7536 17.487C10.7203 17.5303 10.7157 17.5614 10.687 17.5951H10.6965ZM14.7459 9.02434C14.7459 9.08667 14.7459 9.14923 14.7459 9.21157C14.7459 9.39165 14.7294 9.57173 14.7175 9.75181C14.7175 9.85994 14.7009 9.96808 14.6914 10.0762C14.6819 10.1841 14.6795 10.2755 14.6676 10.3738C14.6486 10.5731 14.6321 10.7726 14.6131 10.9695C14.5988 11.1183 14.5822 11.2648 14.5657 11.4136C14.5491 11.5627 14.5324 11.7139 14.511 11.8652L14.4565 12.2302C14.4565 12.2879 14.4421 12.3431 14.4326 12.3983C14.4066 12.564 14.3852 12.7298 14.3543 12.8929C14.3234 13.0562 14.295 13.222 14.2594 13.3853L14.1811 13.7312C14.1811 13.7815 14.1597 13.832 14.1478 13.8825L14.0055 14.4202V14.4348C13.9486 14.6077 13.8939 14.7806 13.8416 14.9558C13.825 15.0038 13.8036 15.0543 13.7846 15.1024C13.7515 15.196 13.7158 15.2896 13.6803 15.3834C13.6659 15.4194 13.6542 15.4578 13.6375 15.4938L13.5402 15.7098L13.4334 15.95L13.374 16.0725C13.3312 16.1567 13.2862 16.2407 13.2434 16.3272C13.2009 16.4136 13.1391 16.5193 13.0822 16.6129C12.909 16.9023 12.704 17.1663 12.4673 17.4054C12.3395 17.5294 12.1987 17.636 12.0447 17.7247H12.0591H12.0425C11.9307 17.7846 11.8137 17.8301 11.6911 17.8616C11.5695 17.8864 11.4468 17.8945 11.3233 17.8858C11.1759 17.8699 11.0327 17.8364 10.8935 17.7848L10.8057 17.7488L10.8485 17.6959L10.9506 17.5638L11.0005 17.4966L11.0859 17.3741L11.1452 17.2734L11.2875 17.0524C11.3352 16.978 11.3778 16.8987 11.4252 16.8122C11.4729 16.7257 11.5035 16.6706 11.5415 16.6009C11.5797 16.5311 11.6176 16.4592 11.6556 16.387C11.7314 16.2432 11.8051 16.0966 11.8786 15.9525C11.9523 15.8084 12.0187 15.6596 12.0922 15.513C12.1659 15.3664 12.2276 15.2319 12.2941 15.0881C12.5718 14.4853 12.8377 13.8872 13.0846 13.2533C13.2009 12.9506 13.3337 12.653 13.4548 12.3406C13.5759 12.0285 13.6922 11.709 13.7895 11.3801L13.8654 11.1399C13.9367 10.9143 13.996 10.6837 14.0529 10.4531C14.1098 10.2226 14.1502 9.9969 14.1977 9.76387L14.2475 9.47565L14.295 9.42538C14.3497 9.36528 14.4017 9.30295 14.454 9.24039C14.5112 9.16934 14.5632 9.09494 14.6107 9.01697C14.6623 8.93988 14.7089 8.8599 14.7508 8.77701C14.7484 8.85387 14.7484 8.93787 14.7459 9.02434ZM14.689 7.65296V7.71306C14.689 7.79953 14.7058 7.88599 14.7128 7.97246C14.7199 8.05892 14.7247 8.1693 14.7318 8.27028C14.7318 8.27028 14.7318 8.29173 14.7318 8.3038C14.7153 8.35429 14.7009 8.40478 14.6819 8.45282C14.6305 8.59023 14.5679 8.72227 14.4944 8.84895C14.441 8.93273 14.3823 9.01294 14.3188 9.08913L14.2879 9.12756C14.3457 8.66597 14.3726 8.20236 14.3686 7.73719C14.3686 7.61454 14.3686 7.49701 14.3543 7.37212C14.3468 7.34196 14.3413 7.31157 14.3378 7.28074C14.3353 7.25594 14.3353 7.23114 14.3378 7.20634C14.3234 7.05598 14.3022 6.9045 14.2738 6.75257C14.2738 6.73804 14.2738 6.72129 14.2738 6.70677L14.3164 6.72598L14.3353 6.74296L14.3711 6.77647C14.3744 6.79412 14.3799 6.81088 14.3876 6.82697L14.409 6.85333V6.88461C14.409 6.90382 14.4304 6.92058 14.4421 6.9398C14.454 6.95901 14.4684 6.99029 14.4779 7.01665C14.4873 7.04302 14.5229 7.12479 14.5418 7.17998C14.5608 7.23516 14.5586 7.2327 14.5681 7.26153C14.5776 7.29035 14.625 7.33838 14.625 7.37681C14.6396 7.42463 14.6491 7.47355 14.6535 7.52338C14.6535 7.54974 14.6535 7.57611 14.6535 7.60269C14.6641 7.62034 14.676 7.6371 14.689 7.65296ZM11.6889 3.57057C11.7244 3.57057 11.7599 3.57057 11.7979 3.55605H11.926C11.9609 3.55381 11.9958 3.55381 12.0306 3.55605H12.268L12.465 3.57303C12.529 3.57303 12.5908 3.58978 12.6524 3.59939C12.7141 3.609 12.7689 3.62106 12.8282 3.63536C12.8876 3.64988 12.8922 3.63536 12.9231 3.65703C13.0038 3.67871 13.0846 3.70261 13.1605 3.73143C13.3551 3.80695 13.5371 3.90615 13.7063 4.02926C13.8826 4.16309 14.0408 4.31591 14.1811 4.48795C14.3274 4.67294 14.4492 4.8729 14.5467 5.08828C14.5727 5.14347 14.5966 5.20111 14.6177 5.25876C14.6391 5.3164 14.6559 5.36198 14.6725 5.41247C14.689 5.46297 14.7199 5.56127 14.7437 5.6359C14.7673 5.7103 14.7817 5.78715 14.8006 5.86155C14.8006 5.89283 14.8148 5.92635 14.822 5.95763L14.8434 6.06331C14.8624 6.13301 14.8624 6.22663 14.8836 6.31064L14.905 6.48356C14.905 6.52669 14.905 6.57003 14.905 6.61315C14.905 6.65649 14.905 6.69247 14.905 6.73335C14.905 6.77402 14.905 6.85579 14.905 6.91589C14.905 6.97577 14.905 7.08636 14.905 7.17037C14.905 7.25438 14.8931 7.3576 14.886 7.44898C14.886 7.49456 14.886 7.54259 14.8695 7.58817C14.8529 7.63375 14.8695 7.64112 14.8695 7.66749C14.8695 7.64112 14.8695 7.61454 14.8695 7.59063C14.871 7.52673 14.8655 7.4635 14.8529 7.40094C14.8529 7.37927 14.841 7.35514 14.834 7.33123L14.8196 7.28566C14.8108 7.25952 14.8004 7.23382 14.7887 7.2088C14.7722 7.16076 14.7532 7.11518 14.7342 7.07184L14.7058 7.0142C14.7058 6.99029 14.6844 6.96616 14.6725 6.9398C14.6502 6.89444 14.6257 6.85043 14.5988 6.80775C14.5798 6.77647 14.5586 6.74765 14.5394 6.71883C14.5313 6.70811 14.5218 6.6985 14.511 6.69001L14.4968 6.67794C14.4812 6.65784 14.4637 6.63951 14.4445 6.62276C14.4068 6.5888 14.3649 6.56154 14.3188 6.54121C14.2905 6.52825 14.2612 6.51864 14.231 6.51239C14.231 6.47642 14.2166 6.44268 14.2071 6.40916L14.1716 6.27221C14.1502 6.19043 14.1264 6.10643 14.1004 6.03203C14.1004 6.00075 14.079 5.96969 14.0695 5.93595C14.06 5.90244 14.0434 5.85664 14.0291 5.81821C14.015 5.78 13.9697 5.66472 13.9367 5.59255C13.9033 5.52061 13.8892 5.49402 13.8678 5.44375C13.8464 5.39326 13.8369 5.38857 13.8226 5.36198C13.8085 5.33561 13.7871 5.29249 13.7681 5.26121C13.7491 5.22994 13.7158 5.17721 13.6873 5.13632C13.6589 5.09543 13.5971 5.00674 13.5497 4.94418L13.4713 4.85302C13.4477 4.82174 13.4215 4.79046 13.3954 4.76164L13.3028 4.66802C13.2827 4.64434 13.2613 4.622 13.2388 4.60077L13.1272 4.49755C13.1086 4.47789 13.0888 4.45935 13.0678 4.44237C13.0038 4.38942 12.9396 4.33177 12.8732 4.28128H12.8589L12.7166 4.17337L12.7 4.1613L12.719 4.17582L12.6168 4.10611L12.4981 4.02926L12.3819 3.96201L12.287 3.90682L12.1588 3.8418L12.0661 3.79623L11.8287 3.69792L11.7434 3.66418L11.5986 3.61145L11.6889 3.57057ZM11.1333 3.67379H11.1856C11.2169 3.67871 11.2478 3.68585 11.2781 3.69546L11.4751 3.75556C11.5677 3.78438 11.658 3.82036 11.748 3.85387L11.9854 3.9524L12.0781 4.00044L12.2062 4.06277L12.3011 4.11818L12.4174 4.18543C12.4507 4.20464 12.4816 4.22609 12.5125 4.24777L12.6144 4.31502L12.6288 4.30541H12.6168L12.7805 4.42784H12.764H12.7759C12.7995 4.4446 12.8209 4.46627 12.8448 4.48549L12.9515 4.57441C12.9749 4.59385 12.997 4.61485 13.0179 4.63675L13.1201 4.73036C13.1415 4.74957 13.1629 4.7737 13.1841 4.79538L13.2743 4.89145C13.2981 4.91535 13.3195 4.94418 13.3432 4.97054L13.4001 5.02573C13.4191 5.05231 13.4405 5.07868 13.4594 5.1075C13.4797 5.13118 13.4987 5.15598 13.5166 5.1819L13.5686 5.26591C13.5854 5.29249 13.6044 5.31886 13.6209 5.34768L13.6754 5.42923C13.6754 5.45805 13.6993 5.48441 13.7112 5.50609C13.7231 5.52776 13.7632 5.61422 13.7871 5.66695L13.8513 5.82782C13.8678 5.87116 13.8819 5.9192 13.8987 5.96478L13.9413 6.09213C13.9556 6.14262 13.9722 6.19289 13.9841 6.24338L14.034 6.42592C14.034 6.44983 14.034 6.47396 14.0505 6.49786C14 6.51797 13.9541 6.5459 13.9128 6.58187C13.8007 6.6728 13.7034 6.77781 13.6209 6.89668C13.5307 7.01911 13.4429 7.13663 13.3551 7.2689L12.7759 8.05892C12.5908 8.31586 12.4103 8.57995 12.2228 8.83689C12.1303 8.96178 12.0377 9.08913 11.9428 9.21157C11.8477 9.334 11.7314 9.48057 11.6247 9.61261C11.4206 9.85279 11.2165 10.1122 11.01 10.3571C10.9127 10.4723 10.813 10.5852 10.7084 10.6958C10.6563 10.7534 10.604 10.8111 10.5493 10.8662L10.3715 11.0392L10.2623 11.1424L10.1577 11.2385L9.95846 11.4136L9.79939 11.5459C9.74467 11.5915 9.6926 11.6346 9.63788 11.6755L9.50021 11.7812C9.47881 11.7979 9.45763 11.8171 9.43623 11.8317L9.19883 11.9925C9.14191 12.0309 9.08256 12.0669 9.02321 12.1029C8.96386 12.1389 8.91157 12.1751 8.85464 12.2061L8.64328 12.3263L8.37985 12.4704L8.25409 12.5232L8.10693 12.5879L7.98117 12.6337L7.82915 12.6865L7.69633 12.7249L7.55138 12.7658H7.57278L7.38767 12.8067C7.34465 12.8176 7.30118 12.8266 7.25706 12.833L7.02937 12.8545H6.51662C6.42395 12.8545 6.33372 12.8545 6.24127 12.8545L6.19847 12.6434L6.15567 12.348C6.13052 12.171 6.11463 11.9934 6.10823 11.8147C6.10823 11.7474 6.10823 11.6826 6.10823 11.6154C6.10823 11.5481 6.10823 11.5363 6.10823 11.4979V11.3752L6.12257 11.104C6.12257 11.0655 6.12257 11.0246 6.12257 10.9862C6.13449 10.8901 6.14397 10.7965 6.15567 10.7005C6.15567 10.6716 6.15567 10.6453 6.17001 10.6165L6.19847 10.4435C6.19847 10.3763 6.21744 10.3115 6.23179 10.2467C6.25539 10.1361 6.27922 10.0257 6.30062 9.91759C6.33614 9.75181 6.38137 9.59094 6.42153 9.43722C6.4383 9.37243 6.45727 9.30764 6.47624 9.2453C6.49522 9.18275 6.52125 9.07707 6.54751 9.00512C6.59737 8.84895 6.64481 8.69278 6.69687 8.53906C6.73504 8.42869 6.77299 8.32055 6.80851 8.21264C6.84404 8.1045 6.87029 8.0444 6.90118 7.96039C6.96053 7.79953 7.02208 7.64112 7.08629 7.48003C7.11232 7.41278 7.14321 7.34576 7.1741 7.27851C7.20499 7.21126 7.2286 7.15115 7.25706 7.0886C7.28574 7.02626 7.34972 6.89891 7.39473 6.80284C7.43996 6.70677 7.46599 6.67079 7.50174 6.60354C7.53726 6.53629 7.56815 6.48111 7.60367 6.42101C7.63941 6.36113 7.68905 6.27221 7.73428 6.19781C7.77929 6.12341 7.80775 6.08252 7.84592 6.02488C7.88387 5.96723 7.89799 5.94087 7.92645 5.89998L8.07604 5.69108C8.1045 5.6502 8.13539 5.61177 8.16628 5.57334L8.25166 5.46297L8.28961 5.41716C8.33947 5.35974 8.38691 5.3021 8.43677 5.24669C8.51509 5.15554 8.59584 5.06907 8.67417 4.98506C8.75249 4.90106 8.81427 4.84341 8.89017 4.7784L9.04461 4.64166C9.08013 4.60792 9.1205 4.58156 9.15845 4.55028C9.1964 4.51922 9.22972 4.49264 9.26766 4.46627L9.44086 4.34629L9.54544 4.28374L9.68311 4.20219L9.88962 4.09405L9.95846 4.06277L10.0983 3.99798L10.2978 3.91866C10.3596 3.8923 10.4235 3.87063 10.4853 3.84672C10.5471 3.82281 10.6135 3.80114 10.6775 3.78193L10.884 3.71713C10.9862 3.70015 11.0645 3.67871 11.1333 3.66173V3.67379ZM4.55124 11.0126C4.55124 10.9069 4.55124 10.8014 4.55124 10.698C4.55124 10.6404 4.55124 10.5827 4.55124 10.5251C4.55124 10.4677 4.56779 10.3716 4.57485 10.2851C4.58213 10.1987 4.59162 10.1314 4.60331 10.0449C4.61522 9.95847 4.62471 9.87201 4.64148 9.788C4.65803 9.70377 4.677 9.58871 4.69597 9.49018C4.71495 9.39165 4.7315 9.32685 4.75047 9.25C4.76966 9.17314 4.78621 9.10589 4.80519 9.03395C4.82416 8.96178 4.84071 8.88738 4.86454 8.81544C4.88814 8.74327 4.9144 8.64474 4.93801 8.56073C4.97838 8.43584 5.01633 8.32055 5.06156 8.18851C5.10657 8.05647 5.15886 7.9099 5.21115 7.77317L5.28947 7.56181C5.32985 7.46328 5.36779 7.36475 5.40574 7.26644L5.49113 7.06469C5.51959 6.9999 5.54584 6.9351 5.57651 6.87009C5.6074 6.80529 5.66212 6.67794 5.70713 6.58433C5.75235 6.49071 5.77596 6.44268 5.80928 6.37297C5.84237 6.30349 5.86863 6.25299 5.90172 6.19289L6.03233 5.95271L6.13912 5.78224L6.2223 5.6502L6.37652 5.43169C6.40741 5.38834 6.44293 5.34768 6.47624 5.30434L6.56869 5.18905C6.5784 5.17564 6.58855 5.16291 6.59958 5.15062L6.79197 4.97791C6.87272 4.88653 6.96053 4.80007 7.04591 4.7136L7.16219 4.60792L7.24757 4.53107C7.25662 4.52258 7.2661 4.51453 7.27625 4.50716L7.4137 4.39657L7.48982 4.33669L7.50394 4.30541L7.6489 4.20688C7.68685 4.18297 7.72237 4.15415 7.76032 4.13248C7.84592 4.07975 7.9313 4.03171 8.01912 3.98122L8.2874 3.84672C8.32998 3.82505 8.37279 3.81075 8.41316 3.79399L8.56496 3.73143H8.6007L8.69314 3.69792L8.84516 3.64743H8.88311L8.9804 3.62106L9.11102 3.58978L9.25112 3.56565L9.34599 3.5489H9.38394L9.5311 3.5346H10.2574L10.4688 3.55135C10.5661 3.55135 10.6658 3.57303 10.7631 3.58978L10.623 3.63536C10.555 3.65614 10.4862 3.68027 10.4165 3.70753C10.2812 3.75556 10.146 3.80829 10.013 3.87063L9.80645 3.9667C9.73518 4.00289 9.66171 4.03886 9.59287 4.07975L9.45035 4.16376C9.42895 4.17806 9.40777 4.18766 9.38879 4.20219L9.2606 4.29089C9.23347 4.3072 9.20743 4.32485 9.18228 4.34384L8.9804 4.50224L8.89745 4.57441L8.79044 4.67048L8.72646 4.73036L8.61261 4.84341C8.55326 4.8986 8.49855 4.9587 8.44405 5.01858L8.37279 5.09298L8.2991 5.17721L8.15436 5.34768L8.04758 5.48441L7.98823 5.56127L7.82915 5.7847C7.78657 5.84234 7.7484 5.90244 7.71045 5.96232C7.6725 6.02242 7.62992 6.08721 7.58955 6.15446L7.43996 6.4114L7.39958 6.48356L7.31883 6.63482C7.28574 6.69492 7.25706 6.75257 7.2286 6.81244L7.14564 6.98068C7.14564 7.00705 7.11938 7.03341 7.10769 7.06223C7.04349 7.20388 6.98171 7.3433 6.92479 7.48741C6.88926 7.58102 6.85132 7.67218 6.81557 7.76579C6.78005 7.85963 6.75865 7.92197 6.73019 8.00597C6.66841 8.17175 6.61149 8.33977 6.55457 8.50555C6.49765 8.67133 6.45727 8.81298 6.40741 8.96669C6.38358 9.04355 6.36218 9.11795 6.341 9.19481L6.29113 9.36528C6.29113 9.3845 6.29113 9.40371 6.27437 9.42293L6.20332 9.70868C6.18898 9.76879 6.17244 9.82866 6.16052 9.88876L6.08926 10.2201C6.07734 10.2802 6.06565 10.3403 6.05616 10.4004L6.0063 10.7076C6.00498 10.7302 6.00498 10.7525 6.0063 10.7749C6.0063 10.8303 5.99196 10.8855 5.98733 10.9431C5.98247 11.0007 5.96835 11.0919 5.9635 11.1688C5.95886 11.2456 5.9635 11.3848 5.94695 11.4929C5.93835 11.6531 5.93835 11.8131 5.94695 11.9733C5.94695 12.1293 5.97056 12.2879 5.99196 12.4534L6.03476 12.7298C6.03476 12.7875 6.05616 12.8449 6.06786 12.9025H5.99439C5.9143 12.8945 5.83531 12.8809 5.75699 12.8619C5.65969 12.8377 5.56482 12.8089 5.46973 12.7754C5.32896 12.7216 5.19681 12.6512 5.07347 12.564C4.99272 12.5044 4.9208 12.4356 4.85748 12.3576C4.79923 12.2827 4.74959 12.2025 4.70789 12.1174C4.65538 11.9934 4.61677 11.8654 4.59162 11.7331C4.59272 11.7291 4.59272 11.7251 4.59162 11.7211V11.7331C4.57727 11.6563 4.56779 11.577 4.56073 11.4929C4.55367 11.4089 4.56073 11.3368 4.56073 11.2528L4.55124 11.0126Z" fill="white"/>
</g>
<mask id="mask1_421_865" style="mask-type:luminance" maskUnits="userSpaceOnUse" x="2" y="4" width="17" height="13">
<path d="M2.57227 4.98267H18.5565V16.0788H2.57227V4.98267Z" fill="white"/>
</mask>
<g mask="url(#mask1_421_865)">
<mask id="mask2_421_865" style="mask-type:luminance" maskUnits="userSpaceOnUse" x="1" y="2" width="20" height="17">
<path d="M16.1682 2.53998L20.0213 12.6673L5.59311 18.2965L1.74023 8.16891L16.1682 2.53998Z" fill="white"/>
</mask>
<g mask="url(#mask2_421_865)">
<mask id="mask3_421_865" style="mask-type:luminance" maskUnits="userSpaceOnUse" x="1" y="2" width="20" height="17">
<path d="M16.1682 2.53998L20.0213 12.6673L5.59311 18.2965L1.74023 8.16891L16.1682 2.53998Z" fill="white"/>
</mask>
<g mask="url(#mask3_421_865)">
<path d="M13.2025 15.3108C13.3029 15.2554 13.3984 15.1924 13.4891 15.1218C13.6667 14.9862 13.805 14.8171 13.9036 14.6149C13.9941 14.4167 14.0418 14.2082 14.0468 13.9897C14.0512 13.8767 14.0473 13.7641 14.0351 13.6517C14.0305 13.5994 14.0259 13.5471 14.0168 13.4966L13.9862 13.336L13.9434 13.1698C14.0327 13.1041 14.119 13.0368 14.2035 12.9653C14.5002 12.7153 14.7573 12.4289 14.9744 12.1056C15.0088 12.056 15.0434 12.0064 15.0748 11.9555L15.112 11.8998L15.2676 11.6409C15.3066 11.5765 15.3411 11.5066 15.3764 11.4387C15.4114 11.3708 15.4421 11.3178 15.4723 11.257L15.5988 11.0014C15.6371 10.9221 15.6724 10.8415 15.7088 10.7628L15.7903 10.5765L15.879 10.3616C15.9039 10.3003 15.9288 10.2391 15.9507 10.1766C16.0193 10.1833 16.0894 10.1868 16.158 10.1935C16.2267 10.2002 16.3182 10.2005 16.3988 10.2052L16.5093 10.2085C16.5499 10.2081 16.592 10.2121 16.6326 10.2119C16.673 10.2114 16.7849 10.2116 16.8599 10.2081L16.8775 10.2011L16.9517 10.1956C16.9803 10.1844 17.0167 10.1933 17.0467 10.192C17.0768 10.1904 17.0801 10.179 17.1006 10.1864C17.1213 10.1938 17.1813 10.1781 17.2202 10.1732C17.259 10.1683 17.2912 10.1661 17.3247 10.1607L17.481 10.1308C17.5121 10.1187 17.5471 10.1178 17.582 10.1093C17.6171 10.1008 17.6727 10.0868 17.7186 10.074C17.8322 10.0427 17.9412 10.0001 18.0462 9.94622C18.1402 9.89528 18.2254 9.83205 18.3017 9.75631C18.3789 9.67721 18.4383 9.58628 18.48 9.48328C18.5157 9.39168 18.5389 9.29672 18.5495 9.19864C18.564 8.97969 18.5265 8.77012 18.4374 8.56993C18.3924 8.46939 18.339 8.37331 18.2772 8.28216C18.2379 8.2225 18.1958 8.16531 18.1506 8.11012C18.0791 8.02209 18.0105 7.9354 17.9317 7.85542C17.7792 7.69634 17.6109 7.5567 17.4269 7.43672C17.28 7.34512 17.1271 7.2658 16.9678 7.19855C16.8989 7.1713 16.8345 7.14247 16.7665 7.11745L16.7685 7.07545C16.7727 6.96664 16.7694 6.85783 16.7588 6.74947C16.7387 6.52739 16.6721 6.32072 16.5585 6.12947C16.5005 6.03094 16.4316 5.94113 16.3518 5.8598C16.2805 5.78652 16.2042 5.71927 16.1225 5.65827C15.9445 5.53606 15.7545 5.43753 15.5526 5.36291C15.1897 5.2255 14.8157 5.13345 14.4312 5.08675C14.2688 5.06776 14.1088 5.04765 13.9478 5.03849L13.6014 5.01638C13.5524 5.01503 13.5028 5.01124 13.4525 5.0128L13.1083 5.00275C13.0452 5.00409 12.9836 5.00252 12.9236 5.0052L12.9126 5.00967L12.3533 5.04229C12.3266 5.05279 12.2928 5.05056 12.2628 5.0519C12.1949 5.06039 12.1269 5.06888 12.0581 5.07514C11.9892 5.08117 11.9147 5.09234 11.8438 5.09949C11.8216 5.10798 11.7922 5.10418 11.7684 5.1082L11.4193 5.15937C11.3395 5.16987 11.2574 5.18126 11.1793 5.19645C11.0132 5.22773 10.8477 5.25365 10.6835 5.2894C10.5192 5.32515 10.3533 5.35643 10.1964 5.39173C10.0828 5.42055 9.96406 5.44892 9.85176 5.47462C9.803 5.49361 9.75071 5.49607 9.70239 5.50969L9.09941 5.66788C8.95181 5.70742 8.80509 5.7492 8.65815 5.79098C8.51143 5.83277 8.37883 5.87164 8.2374 5.91387L7.893 6.01731C7.84203 6.0372 7.78908 6.05798 7.73591 6.07875C7.63861 6.11674 7.53911 6.14265 7.44004 6.17617C7.38687 6.19672 7.33392 6.2175 7.28075 6.23828C7.22758 6.25906 7.23861 6.25459 7.21654 6.2633C7.1369 6.29436 7.05725 6.32541 6.9776 6.35647C6.89795 6.38753 6.87126 6.39803 6.82051 6.41791C6.80374 6.42305 6.78764 6.42931 6.77175 6.4369L6.47699 6.52359C6.45956 6.52895 6.44257 6.53566 6.42602 6.54348C6.39955 6.55375 6.3669 6.54839 6.33777 6.55197C6.30865 6.55554 6.27864 6.5571 6.24731 6.56157C6.21598 6.56604 6.14671 6.57766 6.09905 6.58593C6.05139 6.59419 6.02095 6.6009 5.983 6.60805C5.89739 6.62346 5.81554 6.64245 5.7317 6.66234C5.69861 6.6753 5.66529 6.68825 5.6322 6.70121C5.59888 6.71417 5.56358 6.7278 5.52806 6.74165C5.34979 6.76735 5.19049 6.82968 5.0334 6.8909C4.98023 6.91168 4.92728 6.93246 4.87631 6.95212C4.82535 6.972 4.82094 6.97379 4.79225 6.98496C4.76335 6.99613 4.69937 7.02138 4.65061 7.04037C4.60185 7.05936 4.5842 7.06606 4.55618 7.09265L4.44829 7.15007C4.40416 7.16727 4.3671 7.19721 4.32628 7.22335C4.2495 7.26893 4.17361 7.31652 4.09638 7.36724C4.01916 7.41796 3.9618 7.46085 3.89649 7.50956C3.83119 7.55827 3.77117 7.60742 3.69991 7.66104C3.67101 7.68517 3.64519 7.71064 3.61629 7.73499L3.52539 7.81677C3.3533 7.97674 3.20151 8.15436 3.07001 8.34986C2.94999 8.53954 2.85379 8.74107 2.78165 8.95444C2.66471 9.2612 2.60933 9.57891 2.61573 9.90779C2.61551 9.9918 2.62103 10.0756 2.6325 10.1589L2.65611 10.3144C2.66449 10.337 2.66206 10.3636 2.66846 10.387L2.70178 10.5414L2.72737 10.6087L2.76863 10.7575C2.77966 10.7865 2.79091 10.8158 2.80194 10.8448L2.85313 10.9796C2.86328 11.0064 2.87453 11.0356 2.88556 11.0647L2.93256 11.188C2.93851 11.2282 2.94756 11.2675 2.95969 11.3062L3.0164 11.4155C3.02919 11.4492 3.04287 11.4849 3.06891 11.5135L3.19202 11.7231L3.25733 11.8212L3.26483 11.8415L3.27012 11.8549L3.28777 11.9818L3.30388 12.071C3.32947 12.1382 3.32947 12.2182 3.34712 12.291C3.36455 12.3641 3.38353 12.447 3.40581 12.5259L3.47862 12.7705L3.48877 12.7973L3.53488 12.9184L3.58276 13.044L3.58871 13.0598L3.65777 13.2415L3.69793 13.3469L3.79633 13.5453C3.81111 13.5777 3.8281 13.609 3.84707 13.639L3.94989 13.8152C3.97283 13.8532 3.99776 13.8899 4.02468 13.9252C4.06572 13.9864 4.10455 14.0485 4.15242 14.1073L4.32341 14.3162C4.33445 14.3452 4.36688 14.3635 4.38806 14.3861L4.49859 14.5027C4.54515 14.5516 4.59611 14.5988 4.64686 14.6457L4.80902 14.7912L5.02039 14.9663C5.04466 14.9869 5.07025 15.0052 5.09739 15.0213L5.2269 15.1149C5.28294 15.1551 5.3414 15.1889 5.39877 15.2257C5.45591 15.2626 5.51769 15.2979 5.57858 15.3307L5.8162 15.4545L5.92652 15.5041L6.07897 15.5709C6.1434 15.5997 6.21135 15.6248 6.2771 15.6507C6.34285 15.6766 6.40771 15.7003 6.4717 15.7215L6.64026 15.7769C6.67137 15.7854 6.69895 15.7977 6.73005 15.8062L6.98224 15.8676C7.04754 15.8859 7.11572 15.898 7.18169 15.9107C7.24765 15.9237 7.33414 15.944 7.41202 15.955C7.48969 15.9657 7.61589 15.9836 7.71716 15.9956C7.81821 16.0077 7.86586 16.0124 7.93977 16.0195L8.13944 16.037C8.24115 16.0437 8.33978 16.0488 8.43906 16.0564C8.53856 16.064 8.60696 16.0631 8.69632 16.0644C8.78567 16.0656 8.82781 16.0696 8.89179 16.0705C8.95556 16.0714 9.07668 16.0756 9.17045 16.0752C9.3282 16.0754 9.48507 16.0734 9.64415 16.0707C9.72423 16.0678 9.803 16.0678 9.88022 16.0636C9.95744 16.0593 10.0847 16.0533 10.1843 16.0479C10.284 16.0426 10.3475 16.0359 10.4311 16.0289C10.515 16.022 10.5741 16.0169 10.6451 16.0099C10.716 16.0028 10.8095 15.9945 10.8894 15.984L11.1802 15.9402C11.2044 15.9306 11.2311 15.9203 11.2636 15.9257C11.2962 15.9311 11.3752 15.9054 11.4319 15.8935C11.4884 15.8817 11.5819 15.8607 11.666 15.8408C11.7498 15.8209 11.8138 15.8089 11.8873 15.7881C11.9605 15.7671 12.0455 15.7494 12.1187 15.7286C12.1922 15.7076 12.2273 15.6862 12.2847 15.6768C12.342 15.6672 12.3533 15.65 12.3864 15.637L12.5214 15.5843C12.5567 15.5705 12.5944 15.5559 12.6297 15.5421C12.705 15.5126 12.7824 15.4824 12.851 15.4556C12.971 15.4145 13.0882 15.3662 13.2025 15.3108ZM15.6455 10.4295C15.6151 10.5032 15.589 10.5752 15.5546 10.6453L15.4262 10.9221C15.3978 10.9874 15.3647 11.0542 15.3309 11.119C15.2623 11.2591 15.1829 11.3982 15.1147 11.533L14.9951 11.7394C14.9834 11.7633 14.9702 11.7866 14.9554 11.8089L14.9106 11.8779L14.8142 12.0187C14.8005 12.0426 14.7855 12.0656 14.7692 12.0877C14.6538 12.2479 14.5287 12.3996 14.3937 12.5433C14.2631 12.6829 14.1236 12.813 13.9753 12.9332L13.8926 12.9964L13.8432 12.8664C13.8176 12.7989 13.7911 12.7294 13.7646 12.6599L13.7287 12.5656L13.6894 12.4626C13.6607 12.397 13.6287 12.3331 13.5937 12.2707L13.5127 12.1246L13.4761 12.0616L13.3225 11.8252C13.2788 11.7573 13.2263 11.6927 13.1773 11.6241L13.1255 11.5544L13.0507 11.4651C13.0057 11.413 12.9609 11.3558 12.9112 11.3055L12.7961 11.1831L12.7299 11.1161L12.5384 10.9333C12.4865 10.8839 12.432 10.8408 12.3758 10.7932C12.3197 10.7456 12.2734 10.7043 12.2167 10.6621L11.9963 10.4905L11.9266 10.4404C11.8802 10.4123 11.8352 10.3808 11.7902 10.3495C11.7452 10.318 11.677 10.2724 11.6186 10.2387C11.5599 10.2049 11.5001 10.1612 11.4383 10.1261L11.2 9.9871C11.1283 9.94555 11.0522 9.90578 10.9761 9.86601C10.9 9.82602 10.8521 9.80099 10.787 9.76971L10.5865 9.67029C10.5128 9.637 10.4406 9.6008 10.3678 9.56997L10.1167 9.46452C10.038 9.43078 9.95943 9.40486 9.88132 9.37336C9.73549 9.31706 9.58678 9.26679 9.43499 9.2154L8.97122 9.07174C8.67911 8.97187 8.38787 8.87423 8.09995 8.78553C7.81203 8.69706 7.48351 8.62176 7.17396 8.53641C6.86464 8.45107 6.54803 8.36058 6.23739 8.27836L5.77781 8.14609C5.63815 8.11325 5.50246 8.06834 5.37075 8.01115C5.32089 7.9888 5.27455 7.96043 5.23175 7.92624L5.22226 7.90167C5.26661 7.88446 5.3039 7.84916 5.3456 7.82526C5.40759 7.80113 5.46407 7.75577 5.52276 7.72271C5.58123 7.68942 5.59116 7.69589 5.62447 7.68294C5.65757 7.66998 5.68426 7.6597 5.70875 7.63713C5.83716 7.58709 5.95696 7.5147 6.08515 7.46465C6.21356 7.41438 6.34417 7.36344 6.47037 7.31429C6.59635 7.26513 6.71373 7.21933 6.83993 7.19073L7.15168 7.09489C7.19603 7.07768 7.24015 7.06025 7.29046 7.05869C7.34076 7.05713 7.40099 7.01557 7.46189 7.01512C7.52278 7.01445 7.61787 6.97736 7.69509 6.96016L7.72179 6.97021L7.7176 6.95904L7.81666 7.00552L7.90094 7.06003L8.01545 7.12103L8.1048 7.16861L8.30778 7.2877C8.45075 7.37618 8.58997 7.46867 8.73073 7.55804L9.12169 7.81766C9.24105 7.89742 9.36417 7.98076 9.48617 8.05427L9.73306 8.21535L9.93295 8.33332L10.1088 8.43476C10.1765 8.47251 10.2451 8.51273 10.3144 8.54759L10.5765 8.68231C10.6405 8.71672 10.7078 8.7471 10.774 8.78039L11.2179 8.96539L11.4531 9.06928L11.6369 9.14457L11.8511 9.2335L12.1322 9.33761C12.2721 9.39123 12.4234 9.43525 12.5593 9.48529C12.6952 9.53534 12.8634 9.58293 13.0147 9.62694C13.0833 9.64661 13.1526 9.6685 13.2232 9.68727C13.2938 9.70604 13.383 9.73307 13.4641 9.75296L13.7443 9.82132L13.9606 9.86847C14.2811 9.93661 14.6057 9.98777 14.9331 10.0403C15.0845 10.0637 15.2365 10.0894 15.3925 10.1187L15.6581 10.1489C15.6983 10.154 15.7373 10.1567 15.775 10.1625L15.7424 10.2501L15.6455 10.4295ZM16.808 7.33305C16.8685 7.35852 16.9311 7.38288 16.9934 7.41282C17.1035 7.46554 17.2107 7.52408 17.3144 7.58887C17.4148 7.65322 17.5103 7.72405 17.6012 7.80157C17.7142 7.90033 17.8192 8.0069 17.9163 8.12174L18.0078 8.23546C18.0466 8.28618 18.0828 8.33913 18.1164 8.39387L18.1206 8.40526C18.2006 8.52211 18.2637 8.64768 18.3099 8.78218C18.3377 8.88652 18.3535 8.99287 18.3573 9.10101C18.3571 9.18211 18.3476 9.26232 18.3293 9.34119C18.3114 9.4024 18.288 9.46116 18.2593 9.51791C18.2307 9.56305 18.1984 9.60572 18.1631 9.64571C18.1186 9.69017 18.07 9.72972 18.0175 9.76413C17.926 9.81797 17.8295 9.86087 17.7283 9.8926C17.6575 9.92008 17.5829 9.93125 17.511 9.9489C17.439 9.96677 17.4121 9.96945 17.3645 9.97794C17.3168 9.98621 17.2742 9.99492 17.2279 10.0001L17.1182 10.0121C17.1052 10.0184 17.092 10.0235 17.0783 10.0275C17.011 10.0307 16.9444 10.036 16.8747 10.0401C16.8052 10.0441 16.7306 10.0423 16.6571 10.0425C16.5834 10.043 16.5188 10.0398 16.4497 10.0385C16.3273 10.0374 16.2066 10.0278 16.0839 10.0188C16.0596 10.0155 16.0387 10.0135 16.0153 10.0121L16.0532 9.90466L16.2176 9.41536C16.262 9.28488 16.3048 9.14971 16.346 9.01767L16.4288 8.72766C16.4517 8.65438 16.4694 8.58065 16.4914 8.50491C16.5353 8.34628 16.5715 8.18787 16.6132 8.02991C16.6331 7.95507 16.6467 7.87776 16.6613 7.80247C16.6893 7.67556 16.7165 7.54665 16.733 7.41639L16.7493 7.29932C16.769 7.31741 16.7895 7.32479 16.808 7.33305ZM16.4793 7.20369L16.5616 7.23341C16.5499 7.36947 16.5276 7.50442 16.5029 7.64004L16.4466 7.91976C16.4171 8.06253 16.3793 8.20351 16.3533 8.34248C16.2902 8.5706 16.2271 8.79871 16.1547 9.02281C16.0824 9.24668 16.0003 9.5054 15.9195 9.74044C15.8917 9.82088 15.8637 9.90131 15.8342 9.97727C15.7638 9.97035 15.6921 9.9623 15.619 9.95292C15.5392 9.94287 15.4591 9.93303 15.3781 9.92075C15.2974 9.90846 15.1943 9.89192 15.1074 9.87696C14.9466 9.85484 14.7882 9.82624 14.6304 9.80546C14.4724 9.78468 14.3178 9.75229 14.1644 9.72972C13.9407 9.68302 13.7227 9.64437 13.5012 9.57623C13.3796 9.54383 13.2603 9.51054 13.14 9.47502L12.767 9.36308C12.6147 9.31683 12.462 9.26299 12.3116 9.20825L12.1179 9.13966C12.049 9.1124 11.9789 9.08827 11.9091 9.05878L11.63 8.94617L11.4253 8.85613C11.2883 8.79626 11.1555 8.73459 11.0198 8.67159L10.708 8.52033C10.5982 8.46514 10.4883 8.41018 10.3877 8.3465C10.2873 8.2826 10.2346 8.26451 10.1589 8.21938L9.89236 8.08622C9.77454 8.01718 9.65782 7.94434 9.54221 7.86748C9.26598 7.68919 8.99262 7.50487 8.71639 7.3268C8.58799 7.24279 8.46068 7.16884 8.32521 7.08014C8.28991 7.06048 8.25263 7.03612 8.21512 7.01736L8.11562 6.96351C8.0812 6.94608 8.04788 6.92553 8.01413 6.91034C8.15202 6.88487 8.28881 6.85739 8.42825 6.83638C8.56769 6.81538 8.7592 6.78455 8.91253 6.7736C8.99549 6.76444 9.07845 6.75528 9.15788 6.75014L9.40476 6.73093L9.65165 6.71194L9.64062 6.71641L9.65827 6.70948L9.6715 6.70412C9.73681 6.70188 9.80101 6.69741 9.86632 6.69518C10.1809 6.68066 10.4956 6.67887 10.8095 6.68267C11.1235 6.68647 11.4895 6.69295 11.8328 6.70077C12.1763 6.70836 12.4938 6.7211 12.8226 6.73696C13.1513 6.75305 13.4767 6.77293 13.8022 6.80041C13.9641 6.81203 14.1225 6.82745 14.2831 6.84219C14.4437 6.85672 14.5938 6.87034 14.7478 6.88755C14.9018 6.90475 15.0631 6.92173 15.2197 6.94564C15.3027 6.95703 15.385 6.96597 15.4668 6.98049L15.7066 7.02339C15.809 7.04528 15.9114 7.06718 16.0124 7.0922L16.2068 7.14247C16.2578 7.1561 16.3074 7.17286 16.3593 7.18872C16.4109 7.20459 16.4413 7.19788 16.4826 7.21263L16.4793 7.20369ZM7.12565 6.45835C7.18323 6.43601 7.24059 6.41367 7.29818 6.3911C7.46409 6.32631 7.63618 6.27738 7.80629 6.22376C7.90602 6.18488 8.01148 6.16187 8.11451 6.13193C8.21755 6.10199 8.30249 6.07138 8.39736 6.04725C8.58799 5.99363 8.77751 5.93755 8.96593 5.88482C9.10823 5.84461 9.24922 5.80774 9.39219 5.76998C9.53537 5.732 9.68077 5.69335 9.82793 5.65917L10.184 5.57963C10.237 5.55885 10.293 5.55237 10.3473 5.54164C10.5095 5.50657 10.6699 5.46724 10.8314 5.43775C10.9929 5.40826 11.1559 5.37542 11.3192 5.35039L11.666 5.30012C11.7123 5.28203 11.7666 5.28404 11.8174 5.27711L12.3643 5.21835L12.3775 5.21321C12.5574 5.20472 12.7363 5.19422 12.9165 5.18059C12.9668 5.17903 13.0209 5.18104 13.0721 5.18171C13.1703 5.17947 13.2693 5.17947 13.3684 5.17947C13.4068 5.17992 13.4465 5.17724 13.4855 5.18014L13.7199 5.19444L13.9795 5.20897L14.1137 5.22103C14.2066 5.23109 14.3001 5.2436 14.3952 5.25276C14.4903 5.26214 14.6097 5.28247 14.7164 5.30258C15.0454 5.36224 15.3625 5.46099 15.6678 5.59862C15.828 5.6748 15.9769 5.76976 16.1139 5.88304L16.1088 5.86963L16.1148 5.88527C16.2101 5.96928 16.2944 6.06356 16.3672 6.16812C16.4338 6.27403 16.4855 6.38708 16.5216 6.50706C16.5603 6.65206 16.5808 6.7993 16.5832 6.94944L16.5817 7.04529L16.5175 7.02384L16.3593 6.97491L16.2792 6.95212L16.1358 6.91525L16.0215 6.89559L15.7667 6.84041C15.681 6.82231 15.5926 6.81047 15.4959 6.79661C15.3991 6.78276 15.3371 6.7736 15.2592 6.76265C15.1815 6.75171 15.1014 6.74188 15.0214 6.73182C14.8614 6.71194 14.6999 6.69496 14.5406 6.67731C14.3815 6.65943 14.2202 6.65027 14.059 6.63329C13.8975 6.61654 13.7514 6.60648 13.5948 6.59553C12.9395 6.54973 12.2928 6.51354 11.6199 6.50817C11.2993 6.50706 10.977 6.48851 10.6458 6.48628C10.3146 6.48427 9.9784 6.48918 9.64039 6.51555L9.39174 6.53007C9.1581 6.54392 8.92445 6.57073 8.69146 6.59978C8.45848 6.62882 8.23608 6.67172 8.0042 6.7106L7.72091 6.76712L7.65737 6.74054C7.58235 6.71037 7.50601 6.68356 7.42967 6.65675C7.34385 6.62815 7.25648 6.60559 7.16756 6.58883C7.07799 6.56783 6.98753 6.55264 6.89597 6.54281C6.96767 6.51756 7.04511 6.4874 7.12565 6.45835ZM5.88261 7.00529L5.93777 6.98362C6.01742 6.95256 6.09111 6.90587 6.16833 6.86811C6.24533 6.83013 6.34549 6.78589 6.43595 6.74299C6.43595 6.74299 6.45581 6.73517 6.46684 6.73093C6.51935 6.72847 6.57098 6.72378 6.62194 6.72445C6.76712 6.72378 6.91119 6.7354 7.0546 6.7593C7.15102 6.77963 7.24589 6.80622 7.339 6.83884L7.38555 6.85426C6.93921 6.96552 6.50258 7.10673 6.07522 7.27787C5.96226 7.32188 5.85393 7.36411 5.74383 7.42242C5.7189 7.44052 5.69287 7.45661 5.66573 7.47113C5.64389 7.4823 5.62094 7.49124 5.59712 7.49772C5.46363 7.56542 5.33192 7.64004 5.20197 7.72159C5.18873 7.72673 5.17328 7.73276 5.16005 7.7379L5.16225 7.69076L5.17108 7.66663L5.18917 7.62105C5.20417 7.61144 5.21763 7.60027 5.22976 7.58709L5.24631 7.55737L5.25955 7.55223L5.27499 7.5462C5.29287 7.53927 5.30059 7.51313 5.31405 7.49504C5.3275 7.47672 5.35111 7.45214 5.37207 7.4336C5.39303 7.41527 5.45547 7.35227 5.4996 7.31451C5.5435 7.27653 5.54218 7.27966 5.56534 7.26044C5.58851 7.241 5.61565 7.17889 5.65117 7.16504C5.69 7.13421 5.73148 7.10762 5.77583 7.0855C5.8001 7.07612 5.82459 7.06651 5.84885 7.05713C5.86121 7.04059 5.87246 7.02339 5.88261 7.00529ZM3.1993 11.308C3.1865 11.2745 3.17371 11.2407 3.14679 11.2101L3.10068 11.089C3.0859 11.0569 3.07354 11.024 3.06317 10.9903L2.97779 10.766L2.92241 10.5738C2.89946 10.5133 2.89262 10.4489 2.87939 10.387C2.86593 10.3254 2.85754 10.2693 2.84938 10.2081C2.84144 10.1469 2.82643 10.1475 2.83526 10.1107C2.82599 10.0266 2.81915 9.94175 2.81849 9.85953C2.81805 9.64862 2.84408 9.44083 2.89659 9.23662C2.95661 9.02191 3.04045 8.81748 3.14855 8.6231C3.26637 8.41845 3.40691 8.23144 3.5704 8.06186C3.61188 8.0174 3.65645 7.97428 3.7019 7.93339C3.74735 7.89251 3.78331 7.86033 3.82391 7.82637C3.86428 7.79264 3.94393 7.72807 4.00416 7.67891C4.06417 7.62976 4.12992 7.58865 4.1917 7.54397C4.22038 7.53257 4.24619 7.5071 4.27245 7.48923L4.36202 7.43091C4.41939 7.38802 4.50588 7.35428 4.57559 7.30401L4.72717 7.22157C4.7671 7.20615 4.80682 7.19051 4.84675 7.17487C4.88646 7.15945 4.91978 7.1465 4.95729 7.13175C4.99501 7.11723 5.07025 7.08774 5.12541 7.06629C5.18078 7.04461 5.28272 7.00485 5.36016 6.97468C5.4376 6.94452 5.53688 6.9186 5.62359 6.89246C5.66573 6.87615 5.70986 6.85873 5.75796 6.85806C5.80605 6.85739 5.80671 6.83907 5.83098 6.82968C5.80671 6.83907 5.78222 6.84867 5.76016 6.85716C5.70059 6.87861 5.64433 6.90654 5.59138 6.94117C5.5713 6.94899 5.55343 6.96887 5.53401 6.98407L5.49695 7.01401C5.47599 7.03188 5.45613 7.05065 5.43738 7.07076C5.39899 7.10382 5.36391 7.13801 5.33081 7.17152L5.28801 7.21911C5.26573 7.22782 5.25139 7.25664 5.23131 7.27742C5.19755 7.31473 5.16578 7.35361 5.136 7.3945C5.11415 7.42354 5.09518 7.45415 5.07554 7.4823C5.06848 7.49414 5.06297 7.50665 5.05922 7.51961L5.05326 7.53749C5.04024 7.55938 5.02943 7.58262 5.02105 7.60675C5.0034 7.65456 4.99325 7.70394 4.99104 7.75488C4.98928 7.78616 4.99104 7.81721 4.99612 7.84827C4.9628 7.86123 4.93699 7.8867 4.90941 7.9077L4.79623 7.99059C4.72849 8.04019 4.65966 8.09292 4.60053 8.14431C4.57162 8.15548 4.55066 8.18698 4.52308 8.20798C4.49551 8.22898 4.45932 8.26116 4.4291 8.28841C4.39887 8.31567 4.30885 8.39968 4.25436 8.4571C4.19986 8.5143 4.18067 8.53731 4.14183 8.57551C4.10322 8.61394 4.10212 8.62467 4.08293 8.64768C4.06373 8.67047 4.03152 8.70622 4.00968 8.73548C3.98761 8.76453 3.95099 8.81502 3.92363 8.85658C3.89605 8.89814 3.83648 8.9884 3.79589 9.05565L3.74007 9.16267C3.71977 9.19618 3.70035 9.23216 3.68336 9.26723L3.63019 9.38833C3.61585 9.41581 3.60283 9.44418 3.59136 9.47301L3.5362 9.61555C3.52495 9.64035 3.51502 9.6656 3.50664 9.69151C3.48105 9.77105 3.45104 9.85238 3.42854 9.93326L3.43361 9.94666L3.38507 10.1203L3.38 10.1401L3.38662 10.1171L3.35904 10.2385L3.33102 10.3783L3.31072 10.5124L3.29395 10.6221L3.28027 10.7664L3.27167 10.8703L3.26615 11.1299L3.26593 11.2229L3.26924 11.3786L3.1993 11.308ZM3.49406 11.7957L3.47531 11.7466C3.46847 11.7151 3.46406 11.6833 3.46185 11.6512L3.44641 11.4434C3.43979 11.3457 3.44045 11.2474 3.43913 11.1502L3.44442 10.8904L3.45545 10.7856L3.46692 10.6422L3.48369 10.5325L3.50377 10.3984C3.50951 10.3602 3.51833 10.3231 3.52716 10.2863L3.55253 10.1656L3.53841 10.1558L3.54282 10.167L3.59666 9.96811L3.60261 9.98375L3.59842 9.97258C3.60526 9.94421 3.61762 9.91605 3.62688 9.88679L3.67035 9.75385C3.67983 9.7248 3.69109 9.69643 3.70388 9.66872L3.75352 9.53847C3.76345 9.51143 3.77801 9.48261 3.79015 9.45468L3.84619 9.33493C3.85987 9.30387 3.87884 9.27327 3.89451 9.24132L3.92495 9.16781C3.9426 9.14033 3.95915 9.11061 3.97879 9.08224C3.99357 9.05453 4.00946 9.02772 4.02711 9.00158L4.08579 8.92204C4.10411 8.89702 4.12154 8.86954 4.14206 8.8434L4.19787 8.76252C4.22435 8.75202 4.24024 8.72029 4.25568 8.7013C4.27134 8.68231 4.33665 8.61305 4.37681 8.57149L4.5019 8.45308C4.53588 8.42202 4.57493 8.39119 4.61112 8.35902L4.71305 8.273C4.75431 8.24149 4.7949 8.20753 4.83704 8.17827L4.98729 8.06544C5.00935 8.05695 5.03142 8.04823 5.04774 8.02388C5.08437 8.06454 5.12673 8.09783 5.17461 8.12375C5.2986 8.19703 5.43032 8.25133 5.56954 8.28663C5.71471 8.32774 5.85481 8.3684 6.00815 8.40392L6.94429 8.66712C7.24765 8.74978 7.55588 8.8253 7.86012 8.9102C8.00839 8.95265 8.15908 8.99443 8.30602 9.04001C8.45296 9.08581 8.62991 9.14301 8.78986 9.19641C9.08463 9.30298 9.39704 9.40263 9.69688 9.50987C9.83808 9.56036 9.97796 9.61399 10.1174 9.67297C10.1891 9.70157 10.261 9.73017 10.3316 9.76189L10.5549 9.86802L10.6893 9.93393L10.8155 9.99827L11.0487 10.1236L11.2276 10.2264C11.2892 10.2615 11.3479 10.2954 11.405 10.3323L11.5519 10.4243C11.5751 10.4384 11.6005 10.4518 11.6214 10.4668L11.8551 10.6332C11.9109 10.6732 11.9654 10.7164 12.0199 10.7595C12.0744 10.8026 12.1265 10.839 12.1757 10.8817L12.3623 11.0381L12.5898 11.2354L12.6838 11.3352L12.7963 11.451L12.8837 11.5533L12.9869 11.678L13.0701 11.7897L13.1599 11.9119L13.1522 11.8918L13.2563 12.052C13.2819 12.0886 13.3057 12.1266 13.3276 12.1659L13.4295 12.3735L13.4763 12.4968L13.5215 12.6157L13.6137 12.8579C13.6471 12.9455 13.6795 13.0306 13.7128 13.1182L13.5334 13.2343L13.2766 13.3809C13.1226 13.4685 12.9646 13.5474 12.8023 13.6175C12.7403 13.6416 12.6807 13.6651 12.6187 13.6892C12.5567 13.7134 12.5457 13.7176 12.5101 13.7315L12.3974 13.7755L12.1421 13.8597C12.1068 13.8733 12.0691 13.8881 12.0338 13.9019C11.9409 13.9252 11.8513 13.95 11.7585 13.9732C11.732 13.9837 11.7075 13.9931 11.6759 13.99L11.5063 14.0253C11.4443 14.0494 11.3779 14.0548 11.313 14.0646C11.2027 14.082 11.0924 14.0992 10.9849 14.1178C10.8194 14.1439 10.6551 14.1591 10.4989 14.1761C10.4331 14.1837 10.3667 14.189 10.3023 14.1937C10.2379 14.1982 10.1311 14.2114 10.0554 14.2127C9.89368 14.2217 9.73262 14.233 9.57222 14.2389C9.45683 14.2427 9.34365 14.2456 9.23135 14.2509C9.11882 14.2561 9.05418 14.2529 8.96571 14.254C8.79604 14.2558 8.6277 14.2545 8.45649 14.2518C8.38523 14.2511 8.31198 14.2462 8.23895 14.2413C8.16592 14.2362 8.10216 14.2355 8.03442 14.231C7.96647 14.2266 7.82615 14.2116 7.72157 14.2036C7.61677 14.1955 7.57419 14.1839 7.49939 14.1743C7.4246 14.1649 7.3626 14.1555 7.29465 14.1435C7.22647 14.1314 7.12653 14.1162 7.04181 14.1003C6.95708 14.0845 6.90921 14.0724 6.84236 14.0572C6.77572 14.042 6.74616 14.038 6.69828 14.0257L6.45206 13.9596C6.40418 13.9473 6.35763 13.9321 6.31108 13.9167L6.1787 13.8756L6.12288 13.8561C6.05184 13.8298 5.98167 13.8056 5.91284 13.7784C5.80076 13.7373 5.69199 13.6919 5.5863 13.6481C5.48084 13.6043 5.40539 13.5668 5.31846 13.5183L5.13688 13.4218C5.09297 13.4001 5.05414 13.3715 5.01178 13.3469C4.96942 13.3221 4.93302 13.3003 4.89507 13.2739L4.72209 13.1532L4.627 13.0771L4.50235 12.9763L4.32849 12.8201L4.27487 12.7663L4.16478 12.6572L4.02027 12.4973C3.97371 12.4486 3.93069 12.3956 3.88634 12.346C3.842 12.2964 3.79831 12.2412 3.7575 12.1876L3.62357 12.0158C3.57128 11.9253 3.52319 11.8592 3.48303 11.8002L3.49406 11.7957ZM12.6231 15.3772C12.5256 15.4152 12.4283 15.4532 12.3332 15.4905C12.28 15.511 12.2268 15.5318 12.1739 15.5526C12.1207 15.5731 12.0263 15.5921 11.944 15.6165C11.8617 15.6408 11.7964 15.656 11.7123 15.6759C11.6285 15.6958 11.5453 15.7179 11.4619 15.7324C11.3785 15.747 11.2656 15.7704 11.168 15.7878C11.0705 15.8053 11.0048 15.8129 10.9271 15.8225C10.8495 15.8323 10.7815 15.8408 10.7082 15.8486C10.635 15.8567 10.5604 15.8676 10.4856 15.8712C10.4106 15.8745 10.3105 15.8853 10.2246 15.8931C10.0949 15.9 9.97509 15.9054 9.8372 15.9103C9.6993 15.9152 9.54552 15.9186 9.40057 15.9183L9.17773 15.9203C9.07249 15.9177 8.96813 15.917 8.86377 15.9165L8.64711 15.9083C8.57718 15.9047 8.5079 15.9034 8.43707 15.8976C8.36625 15.8917 8.22946 15.8859 8.12687 15.877C8.02427 15.8681 7.97154 15.8629 7.89543 15.8564C7.81931 15.8502 7.76349 15.8435 7.6962 15.8337L7.42791 15.7968L7.23243 15.757L7.08086 15.726L6.82404 15.6587C6.77308 15.6453 6.72277 15.6263 6.67093 15.6105L6.53149 15.5644C6.5156 15.5602 6.50016 15.555 6.48493 15.549L6.25636 15.4295C6.1434 15.3859 6.0322 15.3341 5.92166 15.2845L5.78245 15.2125L5.68095 15.1594C5.66992 15.154 5.65911 15.148 5.64874 15.141L5.49739 15.0508L5.41465 15.0005L5.3809 14.9983L5.23815 14.8968C5.20219 14.8696 5.16291 14.8463 5.12938 14.8182C5.04995 14.7565 4.97494 14.6931 4.89683 14.6281L4.67664 14.423C4.64134 14.3903 4.61266 14.3553 4.58265 14.3231L4.47057 14.202L4.45778 14.1685L4.39335 14.093L4.2923 13.9676L4.27863 13.9316L4.21928 13.8492L4.1436 13.737L4.07123 13.6133L4.02159 13.5297L4.00791 13.4937L3.94172 13.3599L3.90664 13.2679L3.89318 13.2321L3.83847 13.0884L3.79412 12.9718L3.74029 12.8306L3.68072 12.6735L3.62026 12.468C3.58518 12.3759 3.5693 12.2741 3.54966 12.176L3.64211 12.2919C3.68579 12.3487 3.73256 12.4052 3.78287 12.4611C3.87575 12.5717 3.97305 12.6805 4.07829 12.7837L4.24112 12.9443C4.29981 12.9986 4.3596 13.0552 4.42182 13.1056L4.55044 13.21C4.5714 13.225 4.58795 13.2417 4.60803 13.2544L4.73599 13.3436C4.7607 13.3635 4.7863 13.3818 4.81299 13.3988L5.03142 13.5324L5.12783 13.5849L5.2547 13.6515L5.33302 13.6903L5.47797 13.7574C5.55034 13.7936 5.62514 13.8237 5.70015 13.8537L5.79436 13.8941L5.89828 13.9334L6.10743 14.009L6.27202 14.0608L6.36403 14.0892L6.62702 14.1591C6.69564 14.1788 6.76447 14.1931 6.83353 14.2074C6.90237 14.2217 6.9776 14.2389 7.05394 14.2527L7.34451 14.3016L7.42548 14.3139L7.59382 14.3358C7.66112 14.3457 7.72444 14.3519 7.79018 14.3573L7.97485 14.3751C7.99912 14.3658 8.03288 14.381 8.06377 14.3818C8.21733 14.3915 8.3678 14.3997 8.52113 14.4017C8.6202 14.4017 8.71794 14.4046 8.817 14.4046C8.91628 14.4046 8.98137 14.4024 9.06918 14.399C9.24392 14.3979 9.41932 14.3912 9.59252 14.3854C9.76571 14.3798 9.91067 14.3669 10.0704 14.3588C10.1496 14.3537 10.2259 14.347 10.3045 14.3396L10.4795 14.3253C10.4971 14.3184 10.515 14.3117 10.5386 14.3204L10.8274 14.2849C10.8878 14.2768 10.9492 14.271 11.0087 14.2605L11.3397 14.2087C11.3995 14.1984 11.4591 14.1879 11.5177 14.1754L11.8189 14.1119C11.8399 14.105 11.8606 14.097 11.8809 14.0878C11.9316 14.0679 11.9877 14.0615 12.0426 14.0454C12.0973 14.0291 12.1867 14.0096 12.2591 13.9866C12.3316 13.9634 12.4583 13.9089 12.5638 13.8856C12.7144 13.8362 12.8618 13.7786 13.0063 13.7131C13.1502 13.6568 13.2879 13.5775 13.4328 13.4978L13.672 13.3581C13.7249 13.3373 13.7704 13.2965 13.8194 13.2645L13.8456 13.334C13.867 13.4126 13.8829 13.4924 13.8935 13.5731C13.9063 13.6736 13.9138 13.7737 13.9171 13.8756C13.9182 14.0279 13.9008 14.1781 13.8648 14.326C13.839 14.4238 13.8015 14.5166 13.7521 14.6044C13.704 14.6861 13.6482 14.7621 13.5846 14.832C13.4893 14.9261 13.3852 15.0088 13.2724 15.08C13.2682 15.0805 13.2645 15.0818 13.2614 15.0845L13.2724 15.08C13.2067 15.1212 13.1372 15.1587 13.0622 15.1956C12.9874 15.2326 12.9183 15.2516 12.8409 15.282L12.6231 15.3772Z" fill="white"/>
</g>
</g>
</g>
</svg>
